# xmcd CD database file
#
# Track frame offsets:
#	150
#	8232
#	20085
#	32732
#	42217
#	52187
#	60577
#	71410
#	82877
#	92490
#	105667
#	118087
#	127110
#	135997
#	150202
#	162027
#	173412
#	178925
#	191509
#	203460
#	220272
#	233907
#
# Disc length: 3241 seconds
#
# Revision: 0
# Processed by: cddbd v1.5.2PL0 Copyright (c) Steve Scherf et al.
# Submitted via: CDex 1.51
#
DISCID=1b0ca716
DTITLE=Willie Nelson - Legends
DYEAR=2002
DGENRE=Country
TTITLE0=Things To Remember
TTITLE1=Night Life
TTITLE2=Any Old Armw Won't Do
TTITLE3=Building Heartaches
TTITLE4=I Didn't Sleep A Wink
TTITLE5=Slow Down Old World
TTITLE6=Blame It On The Times
TTITLE7=Touch Me
TTITLE8=Let's Pretend
TTITLE9=You'll Always Have Someone
TTITLE10=Shelter Of Your Arms
TTITLE11=Waiting Time
TTITLE12=Why Are You Picking On Me
TTITLE13=Rainy Day Blues
TTITLE14=Is There Something On Your Mind
TTITLE15=I'm Going To Lose Alot Of Teardrops
TTITLE16=The Ghost
TTITLE17=The Storm Has Just Begun
TTITLE18=Happiness Lives Next Door
TTITLE19=I Let My Mind Wander
TTITLE20=A Moment Isn't Very Long
TTITLE21=One Step Beyond
EXTD=YEAR: 2002
EXTT0=
EXTT1=
EXTT2=
EXTT3=
EXTT4=
EXTT5=
EXTT6=
EXTT7=
EXTT8=
EXTT9=
EXTT10=
EXTT11=
EXTT12=
EXTT13=
EXTT14=
EXTT15=
EXTT16=
EXTT17=
EXTT18=
EXTT19=
EXTT20=
EXTT21=
PLAYORDER=
